<mxfile host="Electron" modified="2024-02-08T20:57:55.148Z" agent="Mozilla/5.0 (X11; Linux x86_64) AppleWebKit/537.36 (KHTML, like Gecko) draw.io/22.1.21 Chrome/120.0.6099.109 Electron/28.1.0 Safari/537.36" etag="tc-yoMdmL5np8-JXc182" version="22.1.21" type="device">
  <diagram name="Page-1" id="UgkzKDdlbD2YLOSZ790F">
    <mxGraphModel dx="778" dy="1107" grid="0" gridSize="10" guides="1" tooltips="1" connect="1" arrows="1" fold="1" page="1" pageScale="1" pageWidth="850" pageHeight="1100" math="0" shadow="0">
      <root>
        <mxCell id="0" />
        <mxCell id="1" parent="0" />
        <mxCell id="WaaS-qGKVErQEOPKYESH-2" value="" style="group;fillColor=#232136;strokeColor=#232136;strokeWidth=25;container=0;movable=0;resizable=0;rotatable=0;deletable=0;editable=0;locked=1;connectable=0;" parent="1" vertex="1" connectable="0">
          <mxGeometry x="950" y="440" width="1010" height="540" as="geometry" />
        </mxCell>
        <mxCell id="3aSCwRJMT3F2lno_R7aL-35" value="Looker" style="rounded=1;whiteSpace=wrap;html=1;dashed=1;labelBackgroundColor=none;strokeColor=#FFFFFF;strokeWidth=3;align=center;verticalAlign=bottom;fontFamily=Helvetica;fontSize=18;fontColor=#FFFFFF;fillColor=none;fontStyle=1" parent="1" vertex="1">
          <mxGeometry x="1400" y="470" width="110" height="220" as="geometry" />
        </mxCell>
        <mxCell id="3q7vbKJiPKWtNffgqGiN-1" style="edgeStyle=orthogonalEdgeStyle;rounded=1;orthogonalLoop=1;jettySize=auto;html=1;entryX=0;entryY=0.5;entryDx=0;entryDy=0;strokeWidth=4;endArrow=openThin;endFill=0;strokeColor=#DB918D;curved=0;fontSize=18;" parent="1" source="9AoiroFoVsxQzHGqrJnJ-85" target="9AoiroFoVsxQzHGqrJnJ-2" edge="1">
          <mxGeometry relative="1" as="geometry">
            <Array as="points">
              <mxPoint x="1526" y="526" />
              <mxPoint x="1526" y="710" />
              <mxPoint x="1551" y="710" />
            </Array>
          </mxGeometry>
        </mxCell>
        <mxCell id="9AoiroFoVsxQzHGqrJnJ-85" value="" style="sketch=0;outlineConnect=0;fontColor=#FFFFFF;gradientColor=none;fillColor=#FFD966;strokeColor=none;dashed=0;verticalLabelPosition=bottom;verticalAlign=top;align=center;html=1;fontSize=18;fontStyle=0;aspect=fixed;shape=mxgraph.aws4.application_discovery_service_aws_agentless_collector;rotation=0;container=0;flipV=0;" parent="1" vertex="1">
          <mxGeometry x="1419" y="490" width="72" height="72" as="geometry" />
        </mxCell>
        <mxCell id="3aSCwRJMT3F2lno_R7aL-2" value="" style="group;fontSize=18;" parent="1" vertex="1" connectable="0">
          <mxGeometry x="955" y="440" width="404" height="510" as="geometry" />
        </mxCell>
        <mxCell id="WaaS-qGKVErQEOPKYESH-108" value="" style="rounded=1;whiteSpace=wrap;html=1;labelBackgroundColor=none;strokeColor=#FFFFFF;strokeWidth=3;align=left;verticalAlign=top;fontFamily=Helvetica;fontSize=18;fontColor=#FFFFFF;fillColor=none;arcSize=4;dashed=1;container=0;" parent="3aSCwRJMT3F2lno_R7aL-2" vertex="1">
          <mxGeometry x="2" y="28" width="402" height="482" as="geometry" />
        </mxCell>
        <mxCell id="WaaS-qGKVErQEOPKYESH-149" value="&lt;div style=&quot;text-align: center; font-size: 18px;&quot;&gt;&lt;span style=&quot;background-color: initial; font-size: 18px;&quot;&gt;&lt;b style=&quot;font-size: 18px;&quot;&gt;Estado de referencia&lt;/b&gt;&lt;/span&gt;&lt;/div&gt;" style="text;whiteSpace=wrap;html=1;fontSize=18;fontFamily=Helvetica;fontColor=#FFFFFF;container=0;" parent="3aSCwRJMT3F2lno_R7aL-2" vertex="1">
          <mxGeometry y="-2" width="404" height="40" as="geometry" />
        </mxCell>
        <mxCell id="9AoiroFoVsxQzHGqrJnJ-135" value="" style="group;fontSize=18;" parent="3aSCwRJMT3F2lno_R7aL-2" vertex="1" connectable="0">
          <mxGeometry x="17" y="34" width="372" height="448" as="geometry" />
        </mxCell>
        <mxCell id="WaaS-qGKVErQEOPKYESH-106" value="&lt;b style=&quot;border-color: var(--border-color); color: rgb(255, 255, 255); font-family: Helvetica; font-size: 18px; font-style: normal; font-variant-ligatures: normal; font-variant-caps: normal; letter-spacing: normal; orphans: 2; text-align: center; text-indent: 0px; text-transform: none; widows: 2; word-spacing: 0px; -webkit-text-stroke-width: 0px; text-decoration-thickness: initial; text-decoration-style: initial; text-decoration-color: initial;&quot;&gt;South Sector&lt;/b&gt;" style="text;whiteSpace=wrap;html=1;fontSize=18;fontFamily=Helvetica;fontColor=#FFFFFF;container=0;" parent="9AoiroFoVsxQzHGqrJnJ-135" vertex="1">
          <mxGeometry y="221" width="371" height="40" as="geometry" />
        </mxCell>
        <mxCell id="WaaS-qGKVErQEOPKYESH-18" value="" style="rounded=1;whiteSpace=wrap;html=1;labelBackgroundColor=none;strokeColor=#DB918D;strokeWidth=3;align=left;verticalAlign=top;fontFamily=Helvetica;fontSize=18;fontColor=#FFFFFF;fillColor=none;arcSize=7;container=0;" parent="9AoiroFoVsxQzHGqrJnJ-135" vertex="1">
          <mxGeometry x="2" y="24" width="370" height="200" as="geometry" />
        </mxCell>
        <mxCell id="WaaS-qGKVErQEOPKYESH-21" value="" style="rounded=1;whiteSpace=wrap;html=1;labelBackgroundColor=none;strokeColor=#DB918D;strokeWidth=3;align=left;verticalAlign=top;fontFamily=Helvetica;fontSize=18;fontColor=#FFFFFF;fillColor=none;container=0;" parent="9AoiroFoVsxQzHGqrJnJ-135" vertex="1">
          <mxGeometry x="194" y="144" width="75" height="60" as="geometry" />
        </mxCell>
        <mxCell id="WaaS-qGKVErQEOPKYESH-22" value="" style="rounded=1;whiteSpace=wrap;html=1;labelBackgroundColor=none;strokeColor=#DB918D;strokeWidth=3;align=left;verticalAlign=top;fontFamily=Helvetica;fontSize=18;fontColor=#FFFFFF;fillColor=none;container=0;" parent="9AoiroFoVsxQzHGqrJnJ-135" vertex="1">
          <mxGeometry x="104" y="144" width="75" height="60" as="geometry" />
        </mxCell>
        <mxCell id="WaaS-qGKVErQEOPKYESH-27" value="" style="rounded=1;whiteSpace=wrap;html=1;labelBackgroundColor=none;strokeColor=#DB918D;strokeWidth=3;align=left;verticalAlign=top;fontFamily=Helvetica;fontSize=18;fontColor=#FFFFFF;fillColor=none;container=0;" parent="9AoiroFoVsxQzHGqrJnJ-135" vertex="1">
          <mxGeometry x="105" y="56" width="75" height="60" as="geometry" />
        </mxCell>
        <mxCell id="WaaS-qGKVErQEOPKYESH-28" value="" style="rounded=1;whiteSpace=wrap;html=1;labelBackgroundColor=none;strokeColor=#DB918D;strokeWidth=3;align=left;verticalAlign=top;fontFamily=Helvetica;fontSize=18;fontColor=#FFFFFF;fillColor=none;container=0;" parent="9AoiroFoVsxQzHGqrJnJ-135" vertex="1">
          <mxGeometry x="17" y="56" width="75" height="60" as="geometry" />
        </mxCell>
        <mxCell id="WaaS-qGKVErQEOPKYESH-29" value="" style="rounded=1;whiteSpace=wrap;html=1;labelBackgroundColor=none;strokeColor=#DB918D;strokeWidth=3;align=left;verticalAlign=top;fontFamily=Helvetica;fontSize=18;fontColor=#FFFFFF;fillColor=none;container=0;" parent="9AoiroFoVsxQzHGqrJnJ-135" vertex="1">
          <mxGeometry x="194" y="54" width="75" height="60" as="geometry" />
        </mxCell>
        <mxCell id="WaaS-qGKVErQEOPKYESH-30" value="" style="rounded=1;whiteSpace=wrap;html=1;labelBackgroundColor=none;strokeColor=#DB918D;strokeWidth=3;align=left;verticalAlign=top;fontFamily=Helvetica;fontSize=18;fontColor=#FFFFFF;fillColor=none;container=0;" parent="9AoiroFoVsxQzHGqrJnJ-135" vertex="1">
          <mxGeometry x="282" y="54" width="75" height="60" as="geometry" />
        </mxCell>
        <mxCell id="WaaS-qGKVErQEOPKYESH-31" value="Requeridos" style="text;html=1;strokeColor=none;fillColor=none;align=left;verticalAlign=middle;whiteSpace=wrap;rounded=0;fontSize=18;fontFamily=Helvetica;fontColor=#FFFFFF;container=0;" parent="9AoiroFoVsxQzHGqrJnJ-135" vertex="1">
          <mxGeometry x="17" y="24" width="75" height="30" as="geometry" />
        </mxCell>
        <mxCell id="WaaS-qGKVErQEOPKYESH-32" value="Opcionales" style="text;html=1;strokeColor=none;fillColor=none;align=left;verticalAlign=middle;whiteSpace=wrap;rounded=0;fontSize=18;fontFamily=Helvetica;fontColor=#FFFFFF;container=0;" parent="9AoiroFoVsxQzHGqrJnJ-135" vertex="1">
          <mxGeometry x="17" y="114" width="75" height="30" as="geometry" />
        </mxCell>
        <mxCell id="WaaS-qGKVErQEOPKYESH-81" value="" style="sketch=0;outlineConnect=0;dashed=0;verticalLabelPosition=bottom;verticalAlign=top;align=center;html=1;fontSize=18;fontStyle=0;aspect=fixed;pointerEvents=1;shape=mxgraph.aws4.iot_thing_temperature_sensor;rounded=1;labelBackgroundColor=none;strokeWidth=3;fontFamily=Helvetica;container=0;" parent="9AoiroFoVsxQzHGqrJnJ-135" vertex="1">
          <mxGeometry x="29.5" y="61" width="50" height="50" as="geometry" />
        </mxCell>
        <mxCell id="WaaS-qGKVErQEOPKYESH-86" value="" style="sketch=0;outlineConnect=0;fontColor=#232F3E;gradientColor=none;strokeColor=#FFFFFF;fillColor=none;dashed=0;verticalLabelPosition=bottom;verticalAlign=top;align=center;html=1;fontSize=18;fontStyle=0;aspect=fixed;shape=mxgraph.aws4.resourceIcon;resIcon=mxgraph.aws4.windfarm;rounded=1;labelBackgroundColor=none;strokeWidth=3;fontFamily=Helvetica;container=0;" parent="9AoiroFoVsxQzHGqrJnJ-135" vertex="1">
          <mxGeometry x="112.5" y="56" width="60" height="60" as="geometry" />
        </mxCell>
        <mxCell id="WaaS-qGKVErQEOPKYESH-87" value="" style="sketch=0;outlineConnect=0;fontColor=#232F3E;gradientColor=none;strokeColor=#FFFFFF;fillColor=none;dashed=0;verticalLabelPosition=bottom;verticalAlign=top;align=center;html=1;fontSize=18;fontStyle=0;aspect=fixed;shape=mxgraph.aws4.resourceIcon;resIcon=mxgraph.aws4.windfarm;rounded=1;labelBackgroundColor=none;strokeWidth=3;fontFamily=Helvetica;container=0;" parent="9AoiroFoVsxQzHGqrJnJ-135" vertex="1">
          <mxGeometry x="201.5" y="56" width="60" height="60" as="geometry" />
        </mxCell>
        <mxCell id="WaaS-qGKVErQEOPKYESH-88" value="" style="sketch=0;outlineConnect=0;fontColor=#232F3E;gradientColor=none;strokeColor=#FFFFFF;fillColor=none;dashed=0;verticalLabelPosition=bottom;verticalAlign=top;align=center;html=1;fontSize=18;fontStyle=0;aspect=fixed;shape=mxgraph.aws4.resourceIcon;resIcon=mxgraph.aws4.windfarm;rounded=1;labelBackgroundColor=none;strokeWidth=3;fontFamily=Helvetica;container=0;" parent="9AoiroFoVsxQzHGqrJnJ-135" vertex="1">
          <mxGeometry x="289.5" y="56" width="60" height="60" as="geometry" />
        </mxCell>
        <mxCell id="WaaS-qGKVErQEOPKYESH-95" value="" style="sketch=0;outlineConnect=0;fontColor=#232F3E;gradientColor=none;strokeColor=#FFFFFF;fillColor=none;dashed=0;verticalLabelPosition=bottom;verticalAlign=top;align=center;html=1;fontSize=18;fontStyle=0;aspect=fixed;shape=mxgraph.aws4.resourceIcon;resIcon=mxgraph.aws4.generic;rounded=1;labelBackgroundColor=none;strokeWidth=3;fontFamily=Helvetica;container=0;" parent="9AoiroFoVsxQzHGqrJnJ-135" vertex="1">
          <mxGeometry x="111.5" y="144" width="60" height="60" as="geometry" />
        </mxCell>
        <mxCell id="WaaS-qGKVErQEOPKYESH-96" value="" style="sketch=0;outlineConnect=0;fontColor=#232F3E;gradientColor=none;strokeColor=#FFFFFF;fillColor=none;dashed=0;verticalLabelPosition=bottom;verticalAlign=top;align=center;html=1;fontSize=18;fontStyle=0;aspect=fixed;shape=mxgraph.aws4.resourceIcon;resIcon=mxgraph.aws4.generic;rounded=1;labelBackgroundColor=none;strokeWidth=3;fontFamily=Helvetica;container=0;" parent="9AoiroFoVsxQzHGqrJnJ-135" vertex="1">
          <mxGeometry x="201.5" y="144" width="60" height="60" as="geometry" />
        </mxCell>
        <mxCell id="WaaS-qGKVErQEOPKYESH-69" value="" style="rounded=1;whiteSpace=wrap;html=1;labelBackgroundColor=none;strokeColor=#DB918D;strokeWidth=3;align=left;verticalAlign=top;fontFamily=Helvetica;fontSize=18;fontColor=#FFFFFF;fillColor=none;arcSize=7;container=0;" parent="9AoiroFoVsxQzHGqrJnJ-135" vertex="1">
          <mxGeometry x="2" y="248" width="370" height="200" as="geometry" />
        </mxCell>
        <mxCell id="WaaS-qGKVErQEOPKYESH-71" value="" style="rounded=1;whiteSpace=wrap;html=1;labelBackgroundColor=none;strokeColor=#DB918D;strokeWidth=3;align=left;verticalAlign=top;fontFamily=Helvetica;fontSize=18;fontColor=#FFFFFF;fillColor=none;container=0;" parent="9AoiroFoVsxQzHGqrJnJ-135" vertex="1">
          <mxGeometry x="194" y="376" width="75" height="60" as="geometry" />
        </mxCell>
        <mxCell id="WaaS-qGKVErQEOPKYESH-72" value="" style="rounded=1;whiteSpace=wrap;html=1;labelBackgroundColor=none;strokeColor=#DB918D;strokeWidth=3;align=left;verticalAlign=top;fontFamily=Helvetica;fontSize=18;fontColor=#FFFFFF;fillColor=none;container=0;" parent="9AoiroFoVsxQzHGqrJnJ-135" vertex="1">
          <mxGeometry x="104" y="376" width="75" height="60" as="geometry" />
        </mxCell>
        <mxCell id="WaaS-qGKVErQEOPKYESH-74" value="" style="rounded=1;whiteSpace=wrap;html=1;labelBackgroundColor=none;strokeColor=#DB918D;strokeWidth=3;align=left;verticalAlign=top;fontFamily=Helvetica;fontSize=18;fontColor=#FFFFFF;fillColor=none;container=0;" parent="9AoiroFoVsxQzHGqrJnJ-135" vertex="1">
          <mxGeometry x="17" y="286" width="75" height="60" as="geometry" />
        </mxCell>
        <mxCell id="WaaS-qGKVErQEOPKYESH-75" value="" style="rounded=1;whiteSpace=wrap;html=1;labelBackgroundColor=none;strokeColor=#DB918D;strokeWidth=3;align=left;verticalAlign=top;fontFamily=Helvetica;fontSize=18;fontColor=#FFFFFF;fillColor=none;container=0;" parent="9AoiroFoVsxQzHGqrJnJ-135" vertex="1">
          <mxGeometry x="105" y="286" width="75" height="60" as="geometry" />
        </mxCell>
        <mxCell id="WaaS-qGKVErQEOPKYESH-76" value="" style="rounded=1;whiteSpace=wrap;html=1;labelBackgroundColor=none;strokeColor=#DB918D;strokeWidth=3;align=left;verticalAlign=top;fontFamily=Helvetica;fontSize=18;fontColor=#FFFFFF;fillColor=none;container=0;" parent="9AoiroFoVsxQzHGqrJnJ-135" vertex="1">
          <mxGeometry x="194" y="286" width="75" height="60" as="geometry" />
        </mxCell>
        <mxCell id="WaaS-qGKVErQEOPKYESH-77" value="" style="rounded=1;whiteSpace=wrap;html=1;labelBackgroundColor=none;strokeColor=#DB918D;strokeWidth=3;align=left;verticalAlign=top;fontFamily=Helvetica;fontSize=18;fontColor=#FFFFFF;fillColor=none;container=0;" parent="9AoiroFoVsxQzHGqrJnJ-135" vertex="1">
          <mxGeometry x="282" y="286" width="75" height="60" as="geometry" />
        </mxCell>
        <mxCell id="WaaS-qGKVErQEOPKYESH-78" value="Requeridos" style="text;html=1;strokeColor=none;fillColor=none;align=left;verticalAlign=middle;whiteSpace=wrap;rounded=0;fontSize=18;fontFamily=Helvetica;fontColor=#FFFFFF;container=0;" parent="9AoiroFoVsxQzHGqrJnJ-135" vertex="1">
          <mxGeometry x="17" y="256" width="75" height="30" as="geometry" />
        </mxCell>
        <mxCell id="WaaS-qGKVErQEOPKYESH-79" value="Opcionales" style="text;html=1;strokeColor=none;fillColor=none;align=left;verticalAlign=middle;whiteSpace=wrap;rounded=0;fontSize=18;fontFamily=Helvetica;fontColor=#FFFFFF;container=0;" parent="9AoiroFoVsxQzHGqrJnJ-135" vertex="1">
          <mxGeometry x="17" y="346" width="75" height="30" as="geometry" />
        </mxCell>
        <mxCell id="WaaS-qGKVErQEOPKYESH-84" value="" style="sketch=0;outlineConnect=0;dashed=0;verticalLabelPosition=bottom;verticalAlign=top;align=center;html=1;fontSize=18;fontStyle=0;aspect=fixed;pointerEvents=1;shape=mxgraph.aws4.iot_thing_temperature_sensor;rounded=1;labelBackgroundColor=none;strokeWidth=3;fontFamily=Helvetica;container=0;" parent="9AoiroFoVsxQzHGqrJnJ-135" vertex="1">
          <mxGeometry x="29.5" y="291" width="50" height="50" as="geometry" />
        </mxCell>
        <mxCell id="WaaS-qGKVErQEOPKYESH-89" value="" style="sketch=0;outlineConnect=0;fontColor=#232F3E;gradientColor=none;strokeColor=#FFFFFF;fillColor=none;dashed=0;verticalLabelPosition=bottom;verticalAlign=top;align=center;html=1;fontSize=18;fontStyle=0;aspect=fixed;shape=mxgraph.aws4.resourceIcon;resIcon=mxgraph.aws4.windfarm;rounded=1;labelBackgroundColor=none;strokeWidth=3;fontFamily=Helvetica;container=0;" parent="9AoiroFoVsxQzHGqrJnJ-135" vertex="1">
          <mxGeometry x="112.5" y="286" width="60" height="60" as="geometry" />
        </mxCell>
        <mxCell id="WaaS-qGKVErQEOPKYESH-90" value="" style="sketch=0;outlineConnect=0;fontColor=#232F3E;gradientColor=none;strokeColor=#FFFFFF;fillColor=none;dashed=0;verticalLabelPosition=bottom;verticalAlign=top;align=center;html=1;fontSize=18;fontStyle=0;aspect=fixed;shape=mxgraph.aws4.resourceIcon;resIcon=mxgraph.aws4.windfarm;rounded=1;labelBackgroundColor=none;strokeWidth=3;fontFamily=Helvetica;container=0;" parent="9AoiroFoVsxQzHGqrJnJ-135" vertex="1">
          <mxGeometry x="201.5" y="286" width="60" height="60" as="geometry" />
        </mxCell>
        <mxCell id="WaaS-qGKVErQEOPKYESH-91" value="" style="sketch=0;outlineConnect=0;fontColor=#232F3E;gradientColor=none;strokeColor=#FFFFFF;fillColor=none;dashed=0;verticalLabelPosition=bottom;verticalAlign=top;align=center;html=1;fontSize=18;fontStyle=0;aspect=fixed;shape=mxgraph.aws4.resourceIcon;resIcon=mxgraph.aws4.windfarm;rounded=1;labelBackgroundColor=none;strokeWidth=3;fontFamily=Helvetica;container=0;" parent="9AoiroFoVsxQzHGqrJnJ-135" vertex="1">
          <mxGeometry x="289.5" y="286" width="60" height="60" as="geometry" />
        </mxCell>
        <mxCell id="WaaS-qGKVErQEOPKYESH-98" value="" style="sketch=0;outlineConnect=0;fontColor=#232F3E;gradientColor=none;strokeColor=#FFFFFF;fillColor=none;dashed=0;verticalLabelPosition=bottom;verticalAlign=top;align=center;html=1;fontSize=18;fontStyle=0;aspect=fixed;shape=mxgraph.aws4.resourceIcon;resIcon=mxgraph.aws4.generic;rounded=1;labelBackgroundColor=none;strokeWidth=3;fontFamily=Helvetica;container=0;" parent="9AoiroFoVsxQzHGqrJnJ-135" vertex="1">
          <mxGeometry x="111.5" y="376" width="60" height="60" as="geometry" />
        </mxCell>
        <mxCell id="WaaS-qGKVErQEOPKYESH-100" value="" style="sketch=0;outlineConnect=0;fontColor=#232F3E;gradientColor=none;strokeColor=#FFFFFF;fillColor=none;dashed=0;verticalLabelPosition=bottom;verticalAlign=top;align=center;html=1;fontSize=18;fontStyle=0;aspect=fixed;shape=mxgraph.aws4.resourceIcon;resIcon=mxgraph.aws4.generic;rounded=1;labelBackgroundColor=none;strokeWidth=3;fontFamily=Helvetica;container=0;" parent="9AoiroFoVsxQzHGqrJnJ-135" vertex="1">
          <mxGeometry x="202" y="376" width="60" height="60" as="geometry" />
        </mxCell>
        <mxCell id="WaaS-qGKVErQEOPKYESH-105" value="&lt;b style=&quot;border-color: var(--border-color); color: rgb(255, 255, 255); font-family: Helvetica; font-size: 18px; font-style: normal; font-variant-ligatures: normal; font-variant-caps: normal; letter-spacing: normal; orphans: 2; text-align: center; text-indent: 0px; text-transform: none; widows: 2; word-spacing: 0px; -webkit-text-stroke-width: 0px; text-decoration-thickness: initial; text-decoration-style: initial; text-decoration-color: initial;&quot;&gt;North Sector&lt;/b&gt;" style="text;whiteSpace=wrap;html=1;fontSize=18;fontFamily=Helvetica;fontColor=#FFFFFF;container=0;" parent="3aSCwRJMT3F2lno_R7aL-2" vertex="1">
          <mxGeometry x="17" y="28" width="372" height="40" as="geometry" />
        </mxCell>
        <mxCell id="3aSCwRJMT3F2lno_R7aL-10" value="" style="sketch=0;outlineConnect=0;fontColor=#232F3E;gradientColor=none;fillColor=#DB918D;strokeColor=none;dashed=0;verticalLabelPosition=bottom;verticalAlign=top;align=center;html=1;fontSize=18;fontStyle=0;aspect=fixed;shape=mxgraph.aws4.mainframe_modernization_analyzer;rotation=0;container=0;flipV=0;" parent="1" vertex="1">
          <mxGeometry x="1423.5" y="590" width="63" height="63" as="geometry" />
        </mxCell>
        <mxCell id="3aSCwRJMT3F2lno_R7aL-11" value="" style="sketch=0;outlineConnect=0;fontColor=#232F3E;gradientColor=none;fillColor=#DB918D;strokeColor=#DB918D;dashed=0;verticalLabelPosition=bottom;verticalAlign=top;align=center;html=1;fontSize=18;fontStyle=0;aspect=fixed;pointerEvents=1;shape=mxgraph.aws4.backup_plan;fontFamily=Helvetica;container=0;rotation=0;flipV=0;" parent="1" vertex="1">
          <mxGeometry x="1423.5" y="728" width="63" height="63" as="geometry" />
        </mxCell>
        <mxCell id="3aSCwRJMT3F2lno_R7aL-37" value="DoThing" style="rounded=1;whiteSpace=wrap;html=1;dashed=1;labelBackgroundColor=none;strokeColor=#FFFFFF;strokeWidth=3;align=center;verticalAlign=bottom;fontFamily=Helvetica;fontSize=18;fontColor=#FFFFFF;fillColor=none;fontStyle=1" parent="1" vertex="1">
          <mxGeometry x="1400" y="840" width="110" height="110" as="geometry" />
        </mxCell>
        <mxCell id="3aSCwRJMT3F2lno_R7aL-36" value="Bran" style="rounded=1;whiteSpace=wrap;html=1;dashed=1;labelBackgroundColor=none;strokeColor=#FFFFFF;strokeWidth=3;align=center;verticalAlign=bottom;fontFamily=Helvetica;fontSize=18;fontColor=#FFFFFF;fillColor=none;fontStyle=1" parent="1" vertex="1">
          <mxGeometry x="1400" y="710" width="110" height="110" as="geometry" />
        </mxCell>
        <mxCell id="3aSCwRJMT3F2lno_R7aL-7" value="" style="sketch=0;outlineConnect=0;fontColor=#232F3E;gradientColor=none;fillColor=#DB918D;strokeColor=#DB918D;dashed=0;verticalLabelPosition=bottom;verticalAlign=top;align=center;html=1;fontSize=18;fontStyle=0;aspect=fixed;pointerEvents=1;shape=mxgraph.aws4.action;fontFamily=Helvetica;container=0;rotation=0;flipV=0;" parent="1" vertex="1">
          <mxGeometry x="1423.5" y="854" width="63" height="63" as="geometry" />
        </mxCell>
        <mxCell id="9AoiroFoVsxQzHGqrJnJ-2" value="" style="rounded=1;whiteSpace=wrap;html=1;labelBackgroundColor=none;strokeColor=#FFFFFF;strokeWidth=3;align=left;verticalAlign=top;fontFamily=Helvetica;fontSize=18;fontColor=#FFFFFF;fillColor=none;arcSize=4;dashed=1;" parent="1" vertex="1">
          <mxGeometry x="1551" y="469" width="402" height="482" as="geometry" />
        </mxCell>
        <mxCell id="9AoiroFoVsxQzHGqrJnJ-78" value="&lt;div style=&quot;text-align: center; font-size: 18px;&quot;&gt;&lt;span style=&quot;background-color: initial; font-size: 18px;&quot;&gt;&lt;b style=&quot;font-size: 18px;&quot;&gt;Estado Observado&lt;/b&gt;&lt;/span&gt;&lt;/div&gt;&lt;div style=&quot;text-align: center; font-size: 18px;&quot;&gt;&lt;span style=&quot;background-color: initial; font-size: 18px;&quot;&gt;&lt;b style=&quot;font-size: 18px;&quot;&gt;&lt;br style=&quot;font-size: 18px;&quot;&gt;&lt;/b&gt;&lt;/span&gt;&lt;/div&gt;" style="text;whiteSpace=wrap;html=1;fontSize=18;fontFamily=Helvetica;fontColor=#FFFFFF;container=0;" parent="1" vertex="1">
          <mxGeometry x="1549" y="439" width="405" height="40" as="geometry" />
        </mxCell>
        <mxCell id="9AoiroFoVsxQzHGqrJnJ-125" value="Opcionales" style="text;html=1;strokeColor=none;fillColor=none;align=left;verticalAlign=middle;whiteSpace=wrap;rounded=0;fontSize=18;fontFamily=Helvetica;fontColor=#FFFFFF;container=0;" parent="1" vertex="1">
          <mxGeometry x="1583" y="820" width="75" height="30" as="geometry" />
        </mxCell>
        <mxCell id="9AoiroFoVsxQzHGqrJnJ-126" value="Requeridos" style="text;html=1;strokeColor=none;fillColor=none;align=left;verticalAlign=middle;whiteSpace=wrap;rounded=0;fontSize=18;fontFamily=Helvetica;fontColor=#FFFFFF;container=0;" parent="1" vertex="1">
          <mxGeometry x="1583" y="730" width="75" height="30" as="geometry" />
        </mxCell>
        <mxCell id="9AoiroFoVsxQzHGqrJnJ-127" value="" style="rounded=1;whiteSpace=wrap;html=1;labelBackgroundColor=none;strokeColor=#DB918D;strokeWidth=3;align=left;verticalAlign=top;fontFamily=Helvetica;fontSize=18;fontColor=#FFFFFF;fillColor=none;arcSize=7;container=0;" parent="1" vertex="1">
          <mxGeometry x="1568" y="722" width="370" height="200" as="geometry" />
        </mxCell>
        <mxCell id="9AoiroFoVsxQzHGqrJnJ-128" value="&lt;b style=&quot;border-color: var(--border-color); color: rgb(255, 255, 255); font-family: Helvetica; font-size: 18px; font-style: normal; font-variant-ligatures: normal; font-variant-caps: normal; letter-spacing: normal; orphans: 2; text-align: center; text-indent: 0px; text-transform: none; widows: 2; word-spacing: 0px; -webkit-text-stroke-width: 0px; text-decoration-thickness: initial; text-decoration-style: initial; text-decoration-color: initial;&quot;&gt;South Sector&lt;/b&gt;" style="text;whiteSpace=wrap;html=1;fontSize=18;fontFamily=Helvetica;fontColor=#FFFFFF;container=0;" parent="1" vertex="1">
          <mxGeometry x="1566" y="695" width="375" height="40" as="geometry" />
        </mxCell>
        <mxCell id="9AoiroFoVsxQzHGqrJnJ-129" value="" style="rounded=1;whiteSpace=wrap;html=1;labelBackgroundColor=none;strokeColor=#DB918D;strokeWidth=3;align=left;verticalAlign=top;fontFamily=Helvetica;fontSize=18;fontColor=#FFFFFF;fillColor=none;arcSize=7;container=0;" parent="1" vertex="1">
          <mxGeometry x="1568" y="498" width="370" height="200" as="geometry" />
        </mxCell>
        <mxCell id="9AoiroFoVsxQzHGqrJnJ-130" value="Opcionales" style="text;html=1;strokeColor=none;fillColor=none;align=left;verticalAlign=middle;whiteSpace=wrap;rounded=0;fontSize=18;fontFamily=Helvetica;fontColor=#FFFFFF;container=0;" parent="1" vertex="1">
          <mxGeometry x="1583" y="588" width="75" height="30" as="geometry" />
        </mxCell>
        <mxCell id="9AoiroFoVsxQzHGqrJnJ-131" value="Requeridos" style="text;html=1;strokeColor=none;fillColor=none;align=left;verticalAlign=middle;whiteSpace=wrap;rounded=0;fontSize=18;fontFamily=Helvetica;fontColor=#FFFFFF;container=0;" parent="1" vertex="1">
          <mxGeometry x="1583" y="498" width="75" height="30" as="geometry" />
        </mxCell>
        <mxCell id="9AoiroFoVsxQzHGqrJnJ-132" value="&lt;b style=&quot;border-color: var(--border-color); color: rgb(255, 255, 255); font-family: Helvetica; font-size: 18px; font-style: normal; font-variant-ligatures: normal; font-variant-caps: normal; letter-spacing: normal; orphans: 2; text-align: center; text-indent: 0px; text-transform: none; widows: 2; word-spacing: 0px; -webkit-text-stroke-width: 0px; text-decoration-thickness: initial; text-decoration-style: initial; text-decoration-color: initial;&quot;&gt;North Sector&lt;/b&gt;" style="text;whiteSpace=wrap;html=1;fontSize=18;fontFamily=Helvetica;fontColor=#FFFFFF;container=0;" parent="1" vertex="1">
          <mxGeometry x="1568" y="469" width="376" height="40" as="geometry" />
        </mxCell>
        <mxCell id="u3xh-n2z4_2thufpDyJM-3" value="" style="rounded=1;whiteSpace=wrap;html=1;labelBackgroundColor=none;strokeColor=#DB918D;strokeWidth=3;align=left;verticalAlign=top;fontFamily=Helvetica;fontSize=18;fontColor=#FFFFFF;fillColor=none;container=0;" parent="1" vertex="1">
          <mxGeometry x="1671" y="530" width="75" height="60" as="geometry" />
        </mxCell>
        <mxCell id="u3xh-n2z4_2thufpDyJM-4" value="" style="rounded=1;whiteSpace=wrap;html=1;labelBackgroundColor=none;strokeColor=#DB918D;strokeWidth=3;align=left;verticalAlign=top;fontFamily=Helvetica;fontSize=18;fontColor=#FFFFFF;fillColor=none;container=0;" parent="1" vertex="1">
          <mxGeometry x="1760" y="530" width="75" height="60" as="geometry" />
        </mxCell>
        <mxCell id="u3xh-n2z4_2thufpDyJM-5" value="" style="rounded=1;whiteSpace=wrap;html=1;labelBackgroundColor=none;strokeColor=#DB918D;strokeWidth=3;align=left;verticalAlign=top;fontFamily=Helvetica;fontSize=18;fontColor=#FFFFFF;fillColor=none;container=0;" parent="1" vertex="1">
          <mxGeometry x="1848" y="530" width="75" height="60" as="geometry" />
        </mxCell>
        <mxCell id="u3xh-n2z4_2thufpDyJM-6" value="" style="rounded=1;whiteSpace=wrap;html=1;labelBackgroundColor=none;strokeColor=#DB918D;strokeWidth=3;align=left;verticalAlign=top;fontFamily=Helvetica;fontSize=18;fontColor=#FFFFFF;fillColor=none;container=0;" parent="1" vertex="1">
          <mxGeometry x="1583" y="530" width="75" height="60" as="geometry" />
        </mxCell>
        <mxCell id="u3xh-n2z4_2thufpDyJM-7" value="" style="rounded=1;whiteSpace=wrap;html=1;labelBackgroundColor=none;strokeColor=#DB918D;strokeWidth=3;align=left;verticalAlign=top;fontFamily=Helvetica;fontSize=18;fontColor=#FFFFFF;fillColor=none;container=0;" parent="1" vertex="1">
          <mxGeometry x="1583" y="760" width="75" height="60" as="geometry" />
        </mxCell>
        <mxCell id="u3xh-n2z4_2thufpDyJM-8" value="" style="rounded=1;whiteSpace=wrap;html=1;labelBackgroundColor=none;strokeColor=#DB918D;strokeWidth=3;align=left;verticalAlign=top;fontFamily=Helvetica;fontSize=18;fontColor=#FFFFFF;fillColor=none;container=0;" parent="1" vertex="1">
          <mxGeometry x="1671" y="760" width="75" height="60" as="geometry" />
        </mxCell>
        <mxCell id="u3xh-n2z4_2thufpDyJM-9" value="" style="rounded=1;whiteSpace=wrap;html=1;labelBackgroundColor=none;strokeColor=#DB918D;strokeWidth=3;align=left;verticalAlign=top;fontFamily=Helvetica;fontSize=18;fontColor=#FFFFFF;fillColor=none;container=0;" parent="1" vertex="1">
          <mxGeometry x="1760" y="760" width="75" height="60" as="geometry" />
        </mxCell>
        <mxCell id="u3xh-n2z4_2thufpDyJM-10" value="" style="rounded=1;whiteSpace=wrap;html=1;labelBackgroundColor=none;strokeColor=#DB918D;strokeWidth=3;align=left;verticalAlign=top;fontFamily=Helvetica;fontSize=18;fontColor=#FFFFFF;fillColor=none;container=0;" parent="1" vertex="1">
          <mxGeometry x="1848" y="760" width="75" height="60" as="geometry" />
        </mxCell>
        <mxCell id="u3xh-n2z4_2thufpDyJM-11" value="" style="rounded=1;whiteSpace=wrap;html=1;labelBackgroundColor=none;strokeColor=#DB918D;strokeWidth=3;align=left;verticalAlign=top;fontFamily=Helvetica;fontSize=18;fontColor=#FFFFFF;fillColor=none;container=0;" parent="1" vertex="1">
          <mxGeometry x="1760" y="850" width="75" height="60" as="geometry" />
        </mxCell>
        <mxCell id="u3xh-n2z4_2thufpDyJM-12" value="" style="rounded=1;whiteSpace=wrap;html=1;labelBackgroundColor=none;strokeColor=#DB918D;strokeWidth=3;align=left;verticalAlign=top;fontFamily=Helvetica;fontSize=18;fontColor=#FFFFFF;fillColor=none;container=0;" parent="1" vertex="1">
          <mxGeometry x="1670" y="850" width="75" height="60" as="geometry" />
        </mxCell>
        <mxCell id="u3xh-n2z4_2thufpDyJM-13" value="" style="rounded=1;whiteSpace=wrap;html=1;labelBackgroundColor=none;strokeColor=#DB918D;strokeWidth=3;align=left;verticalAlign=top;fontFamily=Helvetica;fontSize=18;fontColor=#FFFFFF;fillColor=none;container=0;" parent="1" vertex="1">
          <mxGeometry x="1670" y="618" width="75" height="60" as="geometry" />
        </mxCell>
        <mxCell id="u3xh-n2z4_2thufpDyJM-14" value="" style="rounded=1;whiteSpace=wrap;html=1;labelBackgroundColor=none;strokeColor=#DB918D;strokeWidth=3;align=left;verticalAlign=top;fontFamily=Helvetica;fontSize=18;fontColor=#FFFFFF;fillColor=none;container=0;" parent="1" vertex="1">
          <mxGeometry x="1760" y="618" width="75" height="60" as="geometry" />
        </mxCell>
      </root>
    </mxGraphModel>
  </diagram>
</mxfile>
